M48
;DRILL file {KiCad 0.201508100901+6080~28~ubuntu14.04.1-product} date Sun 08 Nov 2015 01:10:28 GMT
;FORMAT={-:-/ absolute / inch / decimal}
FMAT,2
INCH,TZ
T1C0.016
T2C0.024
T3C0.025
T4C0.028
T5C0.039
T6C0.047
T7C0.130
%
G90
G05
M72
T1
X3.4449Y-4.0276
X3.4764Y-3.8543
X3.8681Y-3.9705
X3.9173Y-4.1654
X3.9252Y-4.2559
X3.9843Y-4.0354
X3.9843Y-4.0945
X4.0502Y-3.81
X4.0551Y-3.8583
X4.1339Y-3.8898
X4.1634Y-3.9075
X4.2205Y-4.4291
X4.2244Y-4.2205
X4.2421Y-3.9567
X4.4449Y-4.3583
X4.4862Y-4.0295
X4.5177Y-3.8287
X4.5236Y-4.065
X4.5374Y-3.6614
X4.5374Y-3.7106
X4.5374Y-3.7598
X4.5512Y-4.0079
X4.5531Y-4.0827
X4.6063Y-3.8386
X4.6457Y-4.0059
X4.6457Y-4.065
X4.6457Y-4.311
X4.6752Y-4.0354
X4.7047Y-4.0059
X4.7047Y-4.065
X4.748Y-3.8031
X4.8248Y-4.1575
X4.8937Y-4.1339
X5.0315Y-4.1575
X5.1457Y-4.1693
T2
X3.3071Y-3.6811
X3.3346Y-3.6102
X3.3346Y-3.752
X3.4055Y-3.5827
X3.4055Y-3.7795
X3.4764Y-3.6102
X3.4764Y-3.752
X3.5039Y-3.6811
X4.9311Y-4.311
X4.9587Y-4.2402
X4.9587Y-4.3819
X5.0295Y-4.2126
X5.0295Y-4.4094
X5.1004Y-4.2402
X5.1004Y-4.3819
X5.128Y-4.311
T3
X4.0059Y-3.6417
X4.0059Y-3.6917
X4.0559Y-3.6417
X4.0559Y-3.6917
X4.1059Y-3.6417
X4.1059Y-3.6917
X4.1559Y-3.6417
X4.1559Y-3.6917
X4.2059Y-3.6417
X4.2059Y-3.6917
T4
X3.5335Y-4.3012
X3.5335Y-4.3799
X3.622Y-3.8681
X3.7008Y-3.8681
X3.7795Y-3.8681
X3.8583Y-3.8681
T5
X5.1181Y-3.9862
T6
X3.4508Y-4.2421
X3.4508Y-4.439
X3.563Y-3.7854
X3.9173Y-3.7854
T7
X3.4055Y-3.6811
X5.0295Y-4.311
T0
M30
