G04 #@! TF.FileFunction,Legend,Top*
%FSLAX46Y46*%
G04 Gerber Fmt 4.6, Leading zero omitted, Abs format (unit mm)*
G04 Created by KiCad (PCBNEW 0.201508100901+6080~28~ubuntu14.04.1-product) date Sun 08 Nov 2015 01:10:26 GMT*
%MOMM*%
G01*
G04 APERTURE LIST*
%ADD10C,0.100000*%
%ADD11C,0.200000*%
%ADD12C,0.250000*%
%ADD13C,0.150000*%
%ADD14R,0.900000X0.800000*%
%ADD15R,0.800000X0.900000*%
%ADD16R,0.900000X0.900000*%
%ADD17R,0.400000X1.300000*%
%ADD18R,1.300000X0.400000*%
%ADD19R,1.000000X0.700000*%
%ADD20R,0.700000X1.000000*%
%ADD21C,1.600000*%
%ADD22C,1.300000*%
%ADD23C,1.116000*%
%ADD24C,2.100000*%
%ADD25R,2.400000X2.600000*%
%ADD26R,1.500000X0.500000*%
%ADD27R,0.800000X0.350000*%
%ADD28R,0.350000X0.800000*%
%ADD29R,2.700000X2.700000*%
%ADD30R,2.000000X2.400000*%
%ADD31C,6.300000*%
%ADD32C,0.700000*%
G04 APERTURE END LIST*
D10*
D11*
X115738095Y-95952381D02*
X115738095Y-94952381D01*
X116119048Y-94952381D01*
X116214286Y-95000000D01*
X116261905Y-95047619D01*
X116309524Y-95142857D01*
X116309524Y-95285714D01*
X116261905Y-95380952D01*
X116214286Y-95428571D01*
X116119048Y-95476190D01*
X115738095Y-95476190D01*
X116642857Y-94952381D02*
X116880952Y-95952381D01*
X117071429Y-95238095D01*
X117261905Y-95952381D01*
X117500000Y-94952381D01*
X118452381Y-95952381D02*
X118119047Y-95476190D01*
X117880952Y-95952381D02*
X117880952Y-94952381D01*
X118261905Y-94952381D01*
X118357143Y-95000000D01*
X118404762Y-95047619D01*
X118452381Y-95142857D01*
X118452381Y-95285714D01*
X118404762Y-95380952D01*
X118357143Y-95428571D01*
X118261905Y-95476190D01*
X117880952Y-95476190D01*
X115738095Y-94178571D02*
X116071429Y-94178571D01*
X116214286Y-94702381D02*
X115738095Y-94702381D01*
X115738095Y-93702381D01*
X116214286Y-93702381D01*
X117214286Y-94702381D02*
X116880952Y-94226190D01*
X116642857Y-94702381D02*
X116642857Y-93702381D01*
X117023810Y-93702381D01*
X117119048Y-93750000D01*
X117166667Y-93797619D01*
X117214286Y-93892857D01*
X117214286Y-94035714D01*
X117166667Y-94130952D01*
X117119048Y-94178571D01*
X117023810Y-94226190D01*
X116642857Y-94226190D01*
X118214286Y-94702381D02*
X117880952Y-94226190D01*
X117642857Y-94702381D02*
X117642857Y-93702381D01*
X118023810Y-93702381D01*
X118119048Y-93750000D01*
X118166667Y-93797619D01*
X118214286Y-93892857D01*
X118214286Y-94035714D01*
X118166667Y-94130952D01*
X118119048Y-94178571D01*
X118023810Y-94226190D01*
X117642857Y-94226190D01*
D12*
X115928571Y-92452381D02*
X116119048Y-92452381D01*
X116214286Y-92500000D01*
X116309524Y-92595238D01*
X116357143Y-92785714D01*
X116357143Y-93119048D01*
X116309524Y-93309524D01*
X116214286Y-93404762D01*
X116119048Y-93452381D01*
X115928571Y-93452381D01*
X115833333Y-93404762D01*
X115738095Y-93309524D01*
X115690476Y-93119048D01*
X115690476Y-92785714D01*
X115738095Y-92595238D01*
X115833333Y-92500000D01*
X115928571Y-92452381D01*
X116785714Y-93452381D02*
X116785714Y-92452381D01*
X117357143Y-93452381D02*
X116928571Y-92880952D01*
X117357143Y-92452381D02*
X116785714Y-93023810D01*
X94078571Y-108869048D02*
X94078571Y-109630953D01*
X93697619Y-109250001D02*
X94459524Y-109250001D01*
X94078571Y-110869048D02*
X94078571Y-111630953D01*
X124452381Y-97205952D02*
X124357143Y-97158333D01*
X124309524Y-97110714D01*
X124261905Y-97015476D01*
X124261905Y-96967857D01*
X124309524Y-96872619D01*
X124357143Y-96825000D01*
X124452381Y-96777381D01*
X124642858Y-96777381D01*
X124738096Y-96825000D01*
X124785715Y-96872619D01*
X124833334Y-96967857D01*
X124833334Y-97015476D01*
X124785715Y-97110714D01*
X124738096Y-97158333D01*
X124642858Y-97205952D01*
X124452381Y-97205952D01*
X124357143Y-97253571D01*
X124309524Y-97301190D01*
X124261905Y-97396429D01*
X124261905Y-97586905D01*
X124309524Y-97682143D01*
X124357143Y-97729762D01*
X124452381Y-97777381D01*
X124642858Y-97777381D01*
X124738096Y-97729762D01*
X124785715Y-97682143D01*
X124833334Y-97586905D01*
X124833334Y-97396429D01*
X124785715Y-97301190D01*
X124738096Y-97253571D01*
X124642858Y-97205952D01*
X125690477Y-96777381D02*
X125500000Y-96777381D01*
X125404762Y-96825000D01*
X125357143Y-96872619D01*
X125261905Y-97015476D01*
X125214286Y-97205952D01*
X125214286Y-97586905D01*
X125261905Y-97682143D01*
X125309524Y-97729762D01*
X125404762Y-97777381D01*
X125595239Y-97777381D01*
X125690477Y-97729762D01*
X125738096Y-97682143D01*
X125785715Y-97586905D01*
X125785715Y-97348810D01*
X125738096Y-97253571D01*
X125690477Y-97205952D01*
X125595239Y-97158333D01*
X125404762Y-97158333D01*
X125309524Y-97205952D01*
X125261905Y-97253571D01*
X125214286Y-97348810D01*
X126357143Y-97205952D02*
X126261905Y-97158333D01*
X126214286Y-97110714D01*
X126166667Y-97015476D01*
X126166667Y-96967857D01*
X126214286Y-96872619D01*
X126261905Y-96825000D01*
X126357143Y-96777381D01*
X126547620Y-96777381D01*
X126642858Y-96825000D01*
X126690477Y-96872619D01*
X126738096Y-96967857D01*
X126738096Y-97015476D01*
X126690477Y-97110714D01*
X126642858Y-97158333D01*
X126547620Y-97205952D01*
X126357143Y-97205952D01*
X126261905Y-97253571D01*
X126214286Y-97301190D01*
X126166667Y-97396429D01*
X126166667Y-97586905D01*
X126214286Y-97682143D01*
X126261905Y-97729762D01*
X126357143Y-97777381D01*
X126547620Y-97777381D01*
X126642858Y-97729762D01*
X126690477Y-97682143D01*
X126738096Y-97586905D01*
X126738096Y-97396429D01*
X126690477Y-97301190D01*
X126642858Y-97253571D01*
X126547620Y-97205952D01*
X127166667Y-97777381D02*
X127166667Y-96777381D01*
X127500001Y-97491667D01*
X127833334Y-96777381D01*
X127833334Y-97777381D01*
X128309524Y-97777381D02*
X128309524Y-96777381D01*
X128309524Y-97253571D02*
X128880953Y-97253571D01*
X128880953Y-97777381D02*
X128880953Y-96777381D01*
X129261905Y-97110714D02*
X129785715Y-97110714D01*
X129261905Y-97777381D01*
X129785715Y-97777381D01*
X125571429Y-99427381D02*
X125000000Y-99427381D01*
X125285714Y-99427381D02*
X125285714Y-98427381D01*
X125190476Y-98570238D01*
X125095238Y-98665476D01*
X125000000Y-98713095D01*
X126190476Y-98427381D02*
X126285715Y-98427381D01*
X126380953Y-98475000D01*
X126428572Y-98522619D01*
X126476191Y-98617857D01*
X126523810Y-98808333D01*
X126523810Y-99046429D01*
X126476191Y-99236905D01*
X126428572Y-99332143D01*
X126380953Y-99379762D01*
X126285715Y-99427381D01*
X126190476Y-99427381D01*
X126095238Y-99379762D01*
X126047619Y-99332143D01*
X126000000Y-99236905D01*
X125952381Y-99046429D01*
X125952381Y-98808333D01*
X126000000Y-98617857D01*
X126047619Y-98522619D01*
X126095238Y-98475000D01*
X126190476Y-98427381D01*
X126952381Y-99427381D02*
X126952381Y-98760714D01*
X126952381Y-98855952D02*
X127000000Y-98808333D01*
X127095238Y-98760714D01*
X127238096Y-98760714D01*
X127333334Y-98808333D01*
X127380953Y-98903571D01*
X127380953Y-99427381D01*
X127380953Y-98903571D02*
X127428572Y-98808333D01*
X127523810Y-98760714D01*
X127666667Y-98760714D01*
X127761905Y-98808333D01*
X127809524Y-98903571D01*
X127809524Y-99427381D01*
X128190476Y-98427381D02*
X128428571Y-99427381D01*
X128619048Y-98713095D01*
X128809524Y-99427381D01*
X129047619Y-98427381D01*
X92026190Y-103071429D02*
X92788095Y-103071429D01*
X94597619Y-103452381D02*
X94264285Y-102976190D01*
X94026190Y-103452381D02*
X94026190Y-102452381D01*
X94407143Y-102452381D01*
X94502381Y-102500000D01*
X94550000Y-102547619D01*
X94597619Y-102642857D01*
X94597619Y-102785714D01*
X94550000Y-102880952D01*
X94502381Y-102928571D01*
X94407143Y-102976190D01*
X94026190Y-102976190D01*
X95645238Y-102452381D02*
X96216667Y-102452381D01*
X95930952Y-103452381D02*
X95930952Y-102452381D01*
X97311905Y-103071429D02*
X98073810Y-103071429D01*
X97692858Y-103452381D02*
X97692858Y-102690476D01*
X85102381Y-105502381D02*
X85721429Y-105502381D01*
X85388095Y-105883333D01*
X85530953Y-105883333D01*
X85626191Y-105930952D01*
X85673810Y-105978571D01*
X85721429Y-106073810D01*
X85721429Y-106311905D01*
X85673810Y-106407143D01*
X85626191Y-106454762D01*
X85530953Y-106502381D01*
X85245238Y-106502381D01*
X85150000Y-106454762D01*
X85102381Y-106407143D01*
X86150000Y-106407143D02*
X86197619Y-106454762D01*
X86150000Y-106502381D01*
X86102381Y-106454762D01*
X86150000Y-106407143D01*
X86150000Y-106502381D01*
X87054762Y-105502381D02*
X86864285Y-105502381D01*
X86769047Y-105550000D01*
X86721428Y-105597619D01*
X86626190Y-105740476D01*
X86578571Y-105930952D01*
X86578571Y-106311905D01*
X86626190Y-106407143D01*
X86673809Y-106454762D01*
X86769047Y-106502381D01*
X86959524Y-106502381D01*
X87054762Y-106454762D01*
X87102381Y-106407143D01*
X87150000Y-106311905D01*
X87150000Y-106073810D01*
X87102381Y-105978571D01*
X87054762Y-105930952D01*
X86959524Y-105883333D01*
X86769047Y-105883333D01*
X86673809Y-105930952D01*
X86626190Y-105978571D01*
X86578571Y-106073810D01*
X87578571Y-106121429D02*
X88340476Y-106121429D01*
X89340476Y-106502381D02*
X88769047Y-106502381D01*
X89054761Y-106502381D02*
X89054761Y-105502381D01*
X88959523Y-105645238D01*
X88864285Y-105740476D01*
X88769047Y-105788095D01*
X89721428Y-105597619D02*
X89769047Y-105550000D01*
X89864285Y-105502381D01*
X90102381Y-105502381D01*
X90197619Y-105550000D01*
X90245238Y-105597619D01*
X90292857Y-105692857D01*
X90292857Y-105788095D01*
X90245238Y-105930952D01*
X89673809Y-106502381D01*
X90292857Y-106502381D01*
X90578571Y-105502381D02*
X90911904Y-106502381D01*
X91245238Y-105502381D01*
X114523809Y-91802381D02*
X114190475Y-91326190D01*
X113952380Y-91802381D02*
X113952380Y-90802381D01*
X114333333Y-90802381D01*
X114428571Y-90850000D01*
X114476190Y-90897619D01*
X114523809Y-90992857D01*
X114523809Y-91135714D01*
X114476190Y-91230952D01*
X114428571Y-91278571D01*
X114333333Y-91326190D01*
X113952380Y-91326190D01*
X114904761Y-91516667D02*
X115380952Y-91516667D01*
X114809523Y-91802381D02*
X115142856Y-90802381D01*
X115476190Y-91802381D01*
X115809523Y-91802381D02*
X115809523Y-90802381D01*
X116047618Y-90802381D01*
X116190476Y-90850000D01*
X116285714Y-90945238D01*
X116333333Y-91040476D01*
X116380952Y-91230952D01*
X116380952Y-91373810D01*
X116333333Y-91564286D01*
X116285714Y-91659524D01*
X116190476Y-91754762D01*
X116047618Y-91802381D01*
X115809523Y-91802381D01*
X116809523Y-91802381D02*
X116809523Y-90802381D01*
X117476189Y-90802381D02*
X117666666Y-90802381D01*
X117761904Y-90850000D01*
X117857142Y-90945238D01*
X117904761Y-91135714D01*
X117904761Y-91469048D01*
X117857142Y-91659524D01*
X117761904Y-91754762D01*
X117666666Y-91802381D01*
X117476189Y-91802381D01*
X117380951Y-91754762D01*
X117285713Y-91659524D01*
X117238094Y-91469048D01*
X117238094Y-91135714D01*
X117285713Y-90945238D01*
X117380951Y-90850000D01*
X117476189Y-90802381D01*
X118952380Y-90802381D02*
X119523809Y-90802381D01*
X119238094Y-91802381D02*
X119238094Y-90802381D01*
X119857142Y-91278571D02*
X120190476Y-91278571D01*
X120333333Y-91802381D02*
X119857142Y-91802381D01*
X119857142Y-90802381D01*
X120333333Y-90802381D01*
X121238095Y-91802381D02*
X120761904Y-91802381D01*
X120761904Y-90802381D01*
X121571428Y-91278571D02*
X121904762Y-91278571D01*
X122047619Y-91802381D02*
X121571428Y-91802381D01*
X121571428Y-90802381D01*
X122047619Y-90802381D01*
X122476190Y-91802381D02*
X122476190Y-90802381D01*
X122809524Y-91516667D01*
X123142857Y-90802381D01*
X123142857Y-91802381D01*
X123619047Y-91278571D02*
X123952381Y-91278571D01*
X124095238Y-91802381D02*
X123619047Y-91802381D01*
X123619047Y-90802381D01*
X124095238Y-90802381D01*
X124380952Y-90802381D02*
X124952381Y-90802381D01*
X124666666Y-91802381D02*
X124666666Y-90802381D01*
X125857143Y-91802381D02*
X125523809Y-91326190D01*
X125285714Y-91802381D02*
X125285714Y-90802381D01*
X125666667Y-90802381D01*
X125761905Y-90850000D01*
X125809524Y-90897619D01*
X125857143Y-90992857D01*
X125857143Y-91135714D01*
X125809524Y-91230952D01*
X125761905Y-91278571D01*
X125666667Y-91326190D01*
X125285714Y-91326190D01*
X126476190Y-91326190D02*
X126476190Y-91802381D01*
X126142857Y-90802381D02*
X126476190Y-91326190D01*
X126809524Y-90802381D01*
X127904762Y-90802381D02*
X127904762Y-91611905D01*
X127952381Y-91707143D01*
X128000000Y-91754762D01*
X128095238Y-91802381D01*
X128285715Y-91802381D01*
X128380953Y-91754762D01*
X128428572Y-91707143D01*
X128476191Y-91611905D01*
X128476191Y-90802381D01*
X128952381Y-91802381D02*
X128952381Y-90802381D01*
X129523810Y-91802381D01*
X129523810Y-90802381D01*
X130000000Y-91802381D02*
X130000000Y-90802381D01*
X130333333Y-90802381D02*
X130904762Y-90802381D01*
X130619047Y-91802381D02*
X130619047Y-90802381D01*
X118809523Y-93452381D02*
X118809523Y-92785714D01*
X118809523Y-92976190D02*
X118857142Y-92880952D01*
X118904761Y-92833333D01*
X118999999Y-92785714D01*
X119095238Y-92785714D01*
X119952381Y-93452381D02*
X119380952Y-93452381D01*
X119666666Y-93452381D02*
X119666666Y-92452381D01*
X119571428Y-92595238D01*
X119476190Y-92690476D01*
X119380952Y-92738095D01*
X121095238Y-92547619D02*
X121142857Y-92500000D01*
X121238095Y-92452381D01*
X121476191Y-92452381D01*
X121571429Y-92500000D01*
X121619048Y-92547619D01*
X121666667Y-92642857D01*
X121666667Y-92738095D01*
X121619048Y-92880952D01*
X121047619Y-93452381D01*
X121666667Y-93452381D01*
X122285714Y-92452381D02*
X122380953Y-92452381D01*
X122476191Y-92500000D01*
X122523810Y-92547619D01*
X122571429Y-92642857D01*
X122619048Y-92833333D01*
X122619048Y-93071429D01*
X122571429Y-93261905D01*
X122523810Y-93357143D01*
X122476191Y-93404762D01*
X122380953Y-93452381D01*
X122285714Y-93452381D01*
X122190476Y-93404762D01*
X122142857Y-93357143D01*
X122095238Y-93261905D01*
X122047619Y-93071429D01*
X122047619Y-92833333D01*
X122095238Y-92642857D01*
X122142857Y-92547619D01*
X122190476Y-92500000D01*
X122285714Y-92452381D01*
X123571429Y-93452381D02*
X123000000Y-93452381D01*
X123285714Y-93452381D02*
X123285714Y-92452381D01*
X123190476Y-92595238D01*
X123095238Y-92690476D01*
X123000000Y-92738095D01*
X124476191Y-92452381D02*
X124000000Y-92452381D01*
X123952381Y-92928571D01*
X124000000Y-92880952D01*
X124095238Y-92833333D01*
X124333334Y-92833333D01*
X124428572Y-92880952D01*
X124476191Y-92928571D01*
X124523810Y-93023810D01*
X124523810Y-93261905D01*
X124476191Y-93357143D01*
X124428572Y-93404762D01*
X124333334Y-93452381D01*
X124095238Y-93452381D01*
X124000000Y-93404762D01*
X123952381Y-93357143D01*
X124952381Y-93071429D02*
X125714286Y-93071429D01*
X126714286Y-93452381D02*
X126142857Y-93452381D01*
X126428571Y-93452381D02*
X126428571Y-92452381D01*
X126333333Y-92595238D01*
X126238095Y-92690476D01*
X126142857Y-92738095D01*
X127666667Y-93452381D02*
X127095238Y-93452381D01*
X127380952Y-93452381D02*
X127380952Y-92452381D01*
X127285714Y-92595238D01*
X127190476Y-92690476D01*
X127095238Y-92738095D01*
X128095238Y-93071429D02*
X128857143Y-93071429D01*
X129523809Y-92452381D02*
X129619048Y-92452381D01*
X129714286Y-92500000D01*
X129761905Y-92547619D01*
X129809524Y-92642857D01*
X129857143Y-92833333D01*
X129857143Y-93071429D01*
X129809524Y-93261905D01*
X129761905Y-93357143D01*
X129714286Y-93404762D01*
X129619048Y-93452381D01*
X129523809Y-93452381D01*
X129428571Y-93404762D01*
X129380952Y-93357143D01*
X129333333Y-93261905D01*
X129285714Y-93071429D01*
X129285714Y-92833333D01*
X129333333Y-92642857D01*
X129380952Y-92547619D01*
X129428571Y-92500000D01*
X129523809Y-92452381D01*
X130428571Y-92880952D02*
X130333333Y-92833333D01*
X130285714Y-92785714D01*
X130238095Y-92690476D01*
X130238095Y-92642857D01*
X130285714Y-92547619D01*
X130333333Y-92500000D01*
X130428571Y-92452381D01*
X130619048Y-92452381D01*
X130714286Y-92500000D01*
X130761905Y-92547619D01*
X130809524Y-92642857D01*
X130809524Y-92690476D01*
X130761905Y-92785714D01*
X130714286Y-92833333D01*
X130619048Y-92880952D01*
X130428571Y-92880952D01*
X130333333Y-92928571D01*
X130285714Y-92976190D01*
X130238095Y-93071429D01*
X130238095Y-93261905D01*
X130285714Y-93357143D01*
X130333333Y-93404762D01*
X130428571Y-93452381D01*
X130619048Y-93452381D01*
X130714286Y-93404762D01*
X130761905Y-93357143D01*
X130809524Y-93261905D01*
X130809524Y-93071429D01*
X130761905Y-92976190D01*
X130714286Y-92928571D01*
X130619048Y-92880952D01*
X122571428Y-94816667D02*
X123047619Y-94816667D01*
X122476190Y-95102381D02*
X122809523Y-94102381D01*
X123142857Y-95102381D01*
X123904762Y-95102381D02*
X123904762Y-94102381D01*
X123904762Y-95054762D02*
X123809524Y-95102381D01*
X123619047Y-95102381D01*
X123523809Y-95054762D01*
X123476190Y-95007143D01*
X123428571Y-94911905D01*
X123428571Y-94626190D01*
X123476190Y-94530952D01*
X123523809Y-94483333D01*
X123619047Y-94435714D01*
X123809524Y-94435714D01*
X123904762Y-94483333D01*
X124809524Y-95102381D02*
X124809524Y-94578571D01*
X124761905Y-94483333D01*
X124666667Y-94435714D01*
X124476190Y-94435714D01*
X124380952Y-94483333D01*
X124809524Y-95054762D02*
X124714286Y-95102381D01*
X124476190Y-95102381D01*
X124380952Y-95054762D01*
X124333333Y-94959524D01*
X124333333Y-94864286D01*
X124380952Y-94769048D01*
X124476190Y-94721429D01*
X124714286Y-94721429D01*
X124809524Y-94673810D01*
X125285714Y-95102381D02*
X125285714Y-94435714D01*
X125285714Y-94530952D02*
X125333333Y-94483333D01*
X125428571Y-94435714D01*
X125571429Y-94435714D01*
X125666667Y-94483333D01*
X125714286Y-94578571D01*
X125714286Y-95102381D01*
X125714286Y-94578571D02*
X125761905Y-94483333D01*
X125857143Y-94435714D01*
X126000000Y-94435714D01*
X126095238Y-94483333D01*
X126142857Y-94578571D01*
X126142857Y-95102381D01*
X127904762Y-94150000D02*
X127809524Y-94102381D01*
X127666667Y-94102381D01*
X127523809Y-94150000D01*
X127428571Y-94245238D01*
X127380952Y-94340476D01*
X127333333Y-94530952D01*
X127333333Y-94673810D01*
X127380952Y-94864286D01*
X127428571Y-94959524D01*
X127523809Y-95054762D01*
X127666667Y-95102381D01*
X127761905Y-95102381D01*
X127904762Y-95054762D01*
X127952381Y-95007143D01*
X127952381Y-94673810D01*
X127761905Y-94673810D01*
X128380952Y-95102381D02*
X128380952Y-94435714D01*
X128380952Y-94626190D02*
X128428571Y-94530952D01*
X128476190Y-94483333D01*
X128571428Y-94435714D01*
X128666667Y-94435714D01*
X129380953Y-95054762D02*
X129285715Y-95102381D01*
X129095238Y-95102381D01*
X129000000Y-95054762D01*
X128952381Y-94959524D01*
X128952381Y-94578571D01*
X129000000Y-94483333D01*
X129095238Y-94435714D01*
X129285715Y-94435714D01*
X129380953Y-94483333D01*
X129428572Y-94578571D01*
X129428572Y-94673810D01*
X128952381Y-94769048D01*
X129857143Y-95102381D02*
X129857143Y-94435714D01*
X129857143Y-94102381D02*
X129809524Y-94150000D01*
X129857143Y-94197619D01*
X129904762Y-94150000D01*
X129857143Y-94102381D01*
X129857143Y-94197619D01*
X130761905Y-94435714D02*
X130761905Y-95245238D01*
X130714286Y-95340476D01*
X130666667Y-95388095D01*
X130571428Y-95435714D01*
X130428571Y-95435714D01*
X130333333Y-95388095D01*
X130761905Y-95054762D02*
X130666667Y-95102381D01*
X130476190Y-95102381D01*
X130380952Y-95054762D01*
X130333333Y-95007143D01*
X130285714Y-94911905D01*
X130285714Y-94626190D01*
X130333333Y-94530952D01*
X130380952Y-94483333D01*
X130476190Y-94435714D01*
X130666667Y-94435714D01*
X130761905Y-94483333D01*
D13*
X92500000Y-111250000D02*
X92500000Y-109150000D01*
X93500000Y-109150000D02*
X93500000Y-111250000D01*
X102250000Y-109000000D02*
X102250000Y-111100000D01*
X101250000Y-111100000D02*
X101250000Y-109000000D01*
X98500000Y-108000000D02*
X96400000Y-108000000D01*
X96400000Y-107000000D02*
X98500000Y-107000000D01*
X123250000Y-105000000D02*
X121150000Y-105000000D01*
X121150000Y-104000000D02*
X123250000Y-104000000D01*
X117500000Y-97000000D02*
X119600000Y-97000000D01*
X119600000Y-98000000D02*
X117500000Y-98000000D01*
X117500000Y-98250000D02*
X119600000Y-98250000D01*
X119600000Y-99250000D02*
X117500000Y-99250000D01*
X125500000Y-102500000D02*
X123400000Y-102500000D01*
X123400000Y-101500000D02*
X125500000Y-101500000D01*
X100000000Y-106500000D02*
X102100000Y-106500000D01*
X102100000Y-107500000D02*
X100000000Y-107500000D01*
X114250000Y-97750000D02*
X112150000Y-97750000D01*
X112150000Y-96750000D02*
X114250000Y-96750000D01*
X113250000Y-110250000D02*
X111150000Y-110250000D01*
X111150000Y-109250000D02*
X113250000Y-109250000D01*
X114250000Y-99000000D02*
X112150000Y-99000000D01*
X112150000Y-98000000D02*
X114250000Y-98000000D01*
X100000000Y-105250000D02*
X102100000Y-105250000D01*
X102100000Y-106250000D02*
X100000000Y-106250000D01*
X113250000Y-109000000D02*
X111150000Y-109000000D01*
X111150000Y-108000000D02*
X113250000Y-108000000D01*
X123000000Y-100000000D02*
X125100000Y-100000000D01*
X125100000Y-101000000D02*
X123000000Y-101000000D01*
X124750000Y-104500000D02*
X126850000Y-104500000D01*
X126850000Y-105500000D02*
X124750000Y-105500000D01*
X127500000Y-104250000D02*
X129600000Y-104250000D01*
X129600000Y-105250000D02*
X127500000Y-105250000D01*
X117750000Y-110000000D02*
X115650000Y-110000000D01*
X115650000Y-109000000D02*
X117750000Y-109000000D01*
X120250000Y-97000000D02*
X122350000Y-97000000D01*
X122350000Y-98000000D02*
X120250000Y-98000000D01*
X118250000Y-109000000D02*
X120350000Y-109000000D01*
X120350000Y-110000000D02*
X118250000Y-110000000D01*
X108000000Y-94250000D02*
X108000000Y-92150000D01*
X109000000Y-92150000D02*
X109000000Y-94250000D01*
X107000000Y-113000000D02*
X104900000Y-113000000D01*
X104900000Y-112000000D02*
X107000000Y-112000000D01*
X107500000Y-112000000D02*
X109600000Y-112000000D01*
X109600000Y-113000000D02*
X107500000Y-113000000D01*
X98650000Y-99500000D02*
X96250000Y-99500000D01*
X98650000Y-100500000D02*
X96250000Y-100500000D01*
X94400000Y-99500000D02*
X92000000Y-99500000D01*
X94400000Y-100500000D02*
X92000000Y-100500000D01*
X95600000Y-102000000D02*
X98000000Y-102000000D01*
X95600000Y-101000000D02*
X98000000Y-101000000D01*
X88000000Y-99900000D02*
X88000000Y-97500000D01*
X87000000Y-99900000D02*
X87000000Y-97500000D01*
X88500000Y-100850000D02*
X88500000Y-103250000D01*
X89500000Y-100850000D02*
X89500000Y-103250000D01*
X89500000Y-100400000D02*
X89500000Y-98000000D01*
X88500000Y-100400000D02*
X88500000Y-98000000D01*
X91000000Y-109100000D02*
X91000000Y-111500000D01*
X92000000Y-109100000D02*
X92000000Y-111500000D01*
X131250000Y-105400000D02*
X131250000Y-103000000D01*
X130250000Y-105400000D02*
X130250000Y-103000000D01*
X113850000Y-92800000D02*
X113750000Y-92800000D01*
X114050000Y-92900000D02*
X113750000Y-92900000D01*
X113850000Y-93200000D02*
X113750000Y-93200000D01*
X113950000Y-93100000D02*
X113750000Y-93100000D01*
X114150000Y-93000000D02*
X113750000Y-93000000D01*
X113650000Y-93400000D02*
X113650000Y-92600000D01*
X113650000Y-92600000D02*
X114250000Y-93000000D01*
X114250000Y-93000000D02*
X113650000Y-93400000D01*
X115150000Y-92500000D02*
X112650000Y-92500000D01*
X115150000Y-93500000D02*
X112650000Y-93500000D01*
X113850000Y-94050000D02*
X113750000Y-94050000D01*
X114050000Y-94150000D02*
X113750000Y-94150000D01*
X113850000Y-94450000D02*
X113750000Y-94450000D01*
X113950000Y-94350000D02*
X113750000Y-94350000D01*
X114150000Y-94250000D02*
X113750000Y-94250000D01*
X113650000Y-94650000D02*
X113650000Y-93850000D01*
X113650000Y-93850000D02*
X114250000Y-94250000D01*
X114250000Y-94250000D02*
X113650000Y-94650000D01*
X115150000Y-93750000D02*
X112650000Y-93750000D01*
X115150000Y-94750000D02*
X112650000Y-94750000D01*
X113850000Y-95300000D02*
X113750000Y-95300000D01*
X114050000Y-95400000D02*
X113750000Y-95400000D01*
X113850000Y-95700000D02*
X113750000Y-95700000D01*
X113950000Y-95600000D02*
X113750000Y-95600000D01*
X114150000Y-95500000D02*
X113750000Y-95500000D01*
X113650000Y-95900000D02*
X113650000Y-95100000D01*
X113650000Y-95100000D02*
X114250000Y-95500000D01*
X114250000Y-95500000D02*
X113650000Y-95900000D01*
X115150000Y-95000000D02*
X112650000Y-95000000D01*
X115150000Y-96000000D02*
X112650000Y-96000000D01*
X103200000Y-106000000D02*
G75*
G03X103200000Y-106000000I-200000J0D01*
G01*
X103100000Y-106000000D02*
G75*
G03X103100000Y-106000000I-100000J0D01*
G01*
X103500000Y-97500000D02*
X102500000Y-97500000D01*
X102500000Y-97500000D02*
X102500000Y-98500000D01*
X110000000Y-97500000D02*
X111000000Y-97500000D01*
X111000000Y-97500000D02*
X111000000Y-98500000D01*
X110000000Y-106000000D02*
X111000000Y-106000000D01*
X111000000Y-106000000D02*
X111000000Y-105000000D01*
X102500000Y-105000000D02*
X102500000Y-106000000D01*
X102500000Y-106000000D02*
X103500000Y-106000000D01*
X121650000Y-101700000D02*
X121650000Y-103700000D01*
X122850000Y-101700000D02*
X122850000Y-103700000D01*
X123450000Y-104100000D02*
X125450000Y-104100000D01*
X123450000Y-102900000D02*
X125450000Y-102900000D01*
X125900000Y-101700000D02*
X125900000Y-103700000D01*
X127100000Y-101700000D02*
X127100000Y-103700000D01*
X127450000Y-103850000D02*
X129450000Y-103850000D01*
X127450000Y-102650000D02*
X129450000Y-102650000D01*
X121400000Y-98700000D02*
X121400000Y-100700000D01*
X122600000Y-98700000D02*
X122600000Y-100700000D01*
D11*
X89250000Y-108250000D02*
X89250000Y-108550000D01*
X89250000Y-110550000D02*
X89250000Y-109950000D01*
X89250000Y-112250000D02*
X89250000Y-111950000D01*
X93250000Y-107250000D02*
X93250000Y-108250000D01*
X93250000Y-108250000D02*
X89250000Y-108250000D01*
X93250000Y-113250000D02*
X93250000Y-112250000D01*
X93250000Y-112250000D02*
X89250000Y-112250000D01*
X81550000Y-107250000D02*
X81550000Y-113250000D01*
X86750000Y-107250000D02*
X81550000Y-107250000D01*
X93250000Y-107250000D02*
X88550000Y-107250000D01*
X88550000Y-113250000D02*
X93250000Y-113250000D01*
X81550000Y-113250000D02*
X86750000Y-113250000D01*
X91000000Y-97750000D02*
X91300000Y-97750000D01*
X93300000Y-97750000D02*
X92700000Y-97750000D01*
X95300000Y-97750000D02*
X94700000Y-97750000D01*
X97300000Y-97750000D02*
X96700000Y-97750000D01*
X99000000Y-97750000D02*
X98700000Y-97750000D01*
X100000000Y-101750000D02*
X99000000Y-101750000D01*
X99000000Y-101750000D02*
X99000000Y-97750000D01*
X90000000Y-101750000D02*
X91000000Y-101750000D01*
X91000000Y-101750000D02*
X91000000Y-97750000D01*
X100000000Y-90050000D02*
X90000000Y-90050000D01*
X100000000Y-95250000D02*
X100000000Y-90050000D01*
X100000000Y-101750000D02*
X100000000Y-97050000D01*
X90000000Y-97050000D02*
X90000000Y-101750000D01*
X90000000Y-90050000D02*
X90000000Y-95250000D01*
D13*
X106830000Y-94849500D02*
X106830000Y-95675000D01*
X106830000Y-95675000D02*
X105369500Y-95675000D01*
X105369500Y-95675000D02*
X105369500Y-94849500D01*
X101750000Y-94849500D02*
X101750000Y-95675000D01*
X101750000Y-95675000D02*
X103210500Y-95675000D01*
X103210500Y-95675000D02*
X103210500Y-94849500D01*
X101750000Y-91420500D02*
X101750000Y-90595000D01*
X101750000Y-90595000D02*
X106830000Y-90595000D01*
X106830000Y-90595000D02*
X106830000Y-91420500D01*
X104290000Y-91420500D02*
X107465000Y-91420500D01*
X107465000Y-91420500D02*
X107465000Y-94849500D01*
X107465000Y-94849500D02*
X101115000Y-94849500D01*
X101115000Y-94849500D02*
X101115000Y-91420500D01*
X101115000Y-91420500D02*
X104290000Y-91420500D01*
D11*
X131100000Y-101250000D02*
G75*
G03X131100000Y-101250000I-1100000J0D01*
G01*
D13*
X109850000Y-94750000D02*
X112250000Y-94750000D01*
X109850000Y-93750000D02*
X112250000Y-93750000D01*
X109850000Y-96000000D02*
X112250000Y-96000000D01*
X109850000Y-95000000D02*
X112250000Y-95000000D01*
X109850000Y-93500000D02*
X112250000Y-93500000D01*
X109850000Y-92500000D02*
X112250000Y-92500000D01*
X115750000Y-105400000D02*
X120350000Y-105400000D01*
X120550000Y-105600000D02*
X120350000Y-105400000D01*
X115550000Y-105600000D02*
X115750000Y-105400000D01*
X115700000Y-108600000D02*
X120400000Y-108600000D01*
X115550000Y-108400000D02*
X115700000Y-108600000D01*
X120550000Y-108400000D02*
X120400000Y-108600000D01*
X105000000Y-108400000D02*
X109600000Y-108400000D01*
X109800000Y-108600000D02*
X109600000Y-108400000D01*
X104800000Y-108600000D02*
X105000000Y-108400000D01*
X104950000Y-111600000D02*
X109650000Y-111600000D01*
X104800000Y-111400000D02*
X104950000Y-111600000D01*
X109800000Y-111400000D02*
X109650000Y-111600000D01*
X99950000Y-111500000D02*
G75*
G03X99950000Y-111500000I-200000J0D01*
G01*
X99850000Y-111500000D02*
G75*
G03X99850000Y-111500000I-100000J0D01*
G01*
X99750000Y-108500000D02*
X95250000Y-108500000D01*
X99750000Y-111500000D02*
X95250000Y-111500000D01*
D11*
X120950000Y-104500000D02*
G75*
G03X120950000Y-104500000I-200000J0D01*
G01*
X120850000Y-104500000D02*
G75*
G03X120850000Y-104500000I-100000J0D01*
G01*
X117250000Y-100500000D02*
X116750000Y-100500000D01*
X116750000Y-100500000D02*
X116750000Y-101000000D01*
X120750000Y-101000000D02*
X120750000Y-100500000D01*
X120750000Y-100500000D02*
X120250000Y-100500000D01*
X117250000Y-104500000D02*
X116750000Y-104500000D01*
X116750000Y-104500000D02*
X116750000Y-104000000D01*
X120250000Y-104500000D02*
X120750000Y-104500000D01*
X120750000Y-104500000D02*
X120750000Y-104000000D01*
D13*
X82000000Y-104750000D02*
X81250000Y-104750000D01*
X81250000Y-104750000D02*
X80750000Y-105000000D01*
X82000000Y-97250000D02*
X81250000Y-97250000D01*
X81250000Y-97250000D02*
X80750000Y-97000000D01*
X85750000Y-102750000D02*
X85750000Y-104750000D01*
X85750000Y-104750000D02*
X84000000Y-104750000D01*
X84000000Y-97250000D02*
X85750000Y-97250000D01*
X85750000Y-97250000D02*
X85750000Y-99250000D01*
X81550000Y-96000000D02*
X81550000Y-106000000D01*
X131050000Y-109500000D02*
G75*
G03X131050000Y-109500000I-3300000J0D01*
G01*
X89800000Y-93500000D02*
G75*
G03X89800000Y-93500000I-3300000J0D01*
G01*
%LPC*%
D14*
X93000000Y-109500000D03*
X93000000Y-110900000D03*
X101750000Y-110750000D03*
X101750000Y-109350000D03*
D15*
X96750000Y-107500000D03*
X98150000Y-107500000D03*
X121500000Y-104500000D03*
X122900000Y-104500000D03*
X119250000Y-97500000D03*
X117850000Y-97500000D03*
X119250000Y-98750000D03*
X117850000Y-98750000D03*
X123750000Y-102000000D03*
X125150000Y-102000000D03*
X101750000Y-107000000D03*
X100350000Y-107000000D03*
X112500000Y-97250000D03*
X113900000Y-97250000D03*
X111500000Y-109750000D03*
X112900000Y-109750000D03*
X112500000Y-98500000D03*
X113900000Y-98500000D03*
X101750000Y-105750000D03*
X100350000Y-105750000D03*
X111500000Y-108500000D03*
X112900000Y-108500000D03*
X124750000Y-100500000D03*
X123350000Y-100500000D03*
X126500000Y-105000000D03*
X125100000Y-105000000D03*
X129250000Y-104750000D03*
X127850000Y-104750000D03*
X116000000Y-109500000D03*
X117400000Y-109500000D03*
X122000000Y-97500000D03*
X120600000Y-97500000D03*
X120000000Y-109500000D03*
X118600000Y-109500000D03*
D14*
X108500000Y-92500000D03*
X108500000Y-93900000D03*
D15*
X105250000Y-112500000D03*
X106650000Y-112500000D03*
X109250000Y-112500000D03*
X107850000Y-112500000D03*
D16*
X98250000Y-100000000D03*
X96650000Y-100000000D03*
X94000000Y-100000000D03*
X92400000Y-100000000D03*
X96000000Y-101500000D03*
X97600000Y-101500000D03*
X87500000Y-99500000D03*
X87500000Y-97900000D03*
X89000000Y-101250000D03*
X89000000Y-102850000D03*
X89000000Y-100000000D03*
X89000000Y-98400000D03*
X91500000Y-109500000D03*
X91500000Y-111100000D03*
X130750000Y-105000000D03*
X130750000Y-103400000D03*
X114750000Y-93000000D03*
X113100000Y-93000000D03*
X114750000Y-94250000D03*
X113100000Y-94250000D03*
X114750000Y-95500000D03*
X113100000Y-95500000D03*
D17*
X104000000Y-106000000D03*
X104500000Y-106000000D03*
X105000000Y-106000000D03*
X105500000Y-106000000D03*
X106000000Y-106000000D03*
X106500000Y-106000000D03*
X107000000Y-106000000D03*
X107500000Y-106000000D03*
X108000000Y-106000000D03*
X108500000Y-106000000D03*
X109000000Y-106000000D03*
X109500000Y-106000000D03*
D18*
X111000000Y-104500000D03*
X111000000Y-104000000D03*
X111000000Y-103500000D03*
X111000000Y-103000000D03*
X111000000Y-102500000D03*
X111000000Y-102000000D03*
X111000000Y-101500000D03*
X111000000Y-101000000D03*
X111000000Y-100500000D03*
X111000000Y-100000000D03*
X111000000Y-99500000D03*
X111000000Y-99000000D03*
D17*
X109500000Y-97500000D03*
X109000000Y-97500000D03*
X108500000Y-97500000D03*
X108000000Y-97500000D03*
X107500000Y-97500000D03*
X107000000Y-97500000D03*
X106500000Y-97500000D03*
X106000000Y-97500000D03*
X105500000Y-97500000D03*
X105000000Y-97500000D03*
X104500000Y-97500000D03*
X104000000Y-97500000D03*
D18*
X102500000Y-99000000D03*
X102500000Y-99500000D03*
X102500000Y-100000000D03*
X102500000Y-100500000D03*
X102500000Y-101000000D03*
X102500000Y-101500000D03*
X102500000Y-102000000D03*
X102500000Y-102500000D03*
X102500000Y-103000000D03*
X102500000Y-103500000D03*
X102500000Y-104000000D03*
X102500000Y-104500000D03*
D19*
X122250000Y-102000000D03*
X122250000Y-103400000D03*
D20*
X123750000Y-103500000D03*
X125150000Y-103500000D03*
D19*
X126500000Y-102000000D03*
X126500000Y-103400000D03*
D20*
X127750000Y-103250000D03*
X129150000Y-103250000D03*
D19*
X122000000Y-99000000D03*
X122000000Y-100400000D03*
D21*
X89750000Y-111250000D03*
X89750000Y-109250000D03*
D22*
X87650000Y-112750000D03*
X87650000Y-107750000D03*
D21*
X92000000Y-98250000D03*
X94000000Y-98250000D03*
X96000000Y-98250000D03*
X98000000Y-98250000D03*
D22*
X90500000Y-96150000D03*
X99500000Y-96150000D03*
D23*
X101750000Y-93770000D03*
X101750000Y-92500000D03*
X103020000Y-93770000D03*
X103020000Y-92500000D03*
X104290000Y-93770000D03*
X104290000Y-92500000D03*
X105560000Y-93770000D03*
X105560000Y-92500000D03*
X106830000Y-93770000D03*
X106830000Y-92500000D03*
D24*
X130000000Y-101250000D03*
D16*
X110250000Y-94250000D03*
X111850000Y-94250000D03*
X110250000Y-95500000D03*
X111850000Y-95500000D03*
X110250000Y-93000000D03*
X111850000Y-93000000D03*
D25*
X115800000Y-107000000D03*
X120300000Y-107000000D03*
X105050000Y-110000000D03*
X109550000Y-110000000D03*
D26*
X99750000Y-111000000D03*
X99750000Y-110350000D03*
X99750000Y-109700000D03*
X99750000Y-109050000D03*
X95350000Y-109050000D03*
X95350000Y-109700000D03*
X95350000Y-110350000D03*
X95350000Y-111000000D03*
D27*
X120750000Y-103500000D03*
X120750000Y-103000000D03*
X120750000Y-102500000D03*
X120750000Y-102000000D03*
X120750000Y-101500000D03*
D28*
X119750000Y-100500000D03*
X119250000Y-100500000D03*
X118750000Y-100500000D03*
X118250000Y-100500000D03*
X117750000Y-100500000D03*
D27*
X116750000Y-101500000D03*
X116750000Y-102000000D03*
X116750000Y-102500000D03*
X116750000Y-103000000D03*
X116750000Y-103500000D03*
D28*
X117750000Y-104500000D03*
X118250000Y-104500000D03*
X118750000Y-104500000D03*
X119250000Y-104500000D03*
X119750000Y-104500000D03*
D29*
X118750000Y-102500000D03*
D26*
X85750000Y-99700000D03*
X85750000Y-100350000D03*
X85750000Y-101000000D03*
X85750000Y-101650000D03*
X85750000Y-102300000D03*
D30*
X83000000Y-97250000D03*
X83000000Y-104750000D03*
D31*
X127750000Y-109500000D03*
D32*
X127750000Y-107000000D03*
X130250000Y-109500000D03*
X127750000Y-112000000D03*
X125250000Y-109500000D03*
X125950000Y-107700000D03*
X129550000Y-107700000D03*
X125950000Y-111300000D03*
X129550000Y-111300000D03*
D31*
X86500000Y-93500000D03*
D32*
X86500000Y-91000000D03*
X89000000Y-93500000D03*
X86500000Y-96000000D03*
X84000000Y-93500000D03*
X84700000Y-91700000D03*
X88300000Y-91700000D03*
X84700000Y-95300000D03*
X88300000Y-95300000D03*
M02*
